<svg width="512" height="512" viewBox="0 0 24 24" fill="none" xmlns="http://www.w3.org/2000/svg">
  <!-- Solid #FF3D00 rounded background filling the full 24x24 space -->
  <rect width="24" height="24" rx="6.5" fill="#FF3D00"/>
  
  <!-- Main logo cursor-and-star paths filled with solid white -->
  <path d="M1.96041 6.89359C1.22329 3.49525 4.93473 0.88279 7.88482 2.71767L7.88573 2.71677L20.4162 10.1903L20.4476 10.2101C23.4101 12.0883 22.624 16.6131 19.2002 17.3801L14.2852 18.4811L11.9395 22.1478C10.0535 25.0983 5.54407 24.3026 4.77758 20.8878C4.77538 20.8781 4.77329 20.868 4.7713 20.8582L1.95951 6.89449L1.96041 6.89359ZM6.44076 5.06607C5.57979 4.51997 4.49716 5.24651 4.63928 6.22455L4.65724 6.32064L4.66353 6.35027L7.46993 20.2835L7.49417 20.3768C7.78278 21.322 9.06914 21.5169 9.61536 20.6624L12.1353 16.7227C12.4152 16.2842 12.8595 15.972 13.371 15.8588L18.5976 14.6878C19.6176 14.459 19.8562 13.1136 18.982 12.5468L6.4731 5.08672C6.46228 5.08026 6.45141 5.07281 6.44076 5.06607Z" fill="#ffffff"/>
  <path d="M17.6419 1.34991C17.8172 1.60211 18.1028 1.75495 18.4098 1.76086L19.7922 1.78745C20.2178 1.79564 20.4218 2.31347 20.1164 2.60983L18.9175 3.77283C18.7361 3.94882 18.6316 4.18938 18.6268 4.44208L18.5979 5.97094C18.5899 6.39644 18.0723 6.60077 17.7757 6.29547L16.5154 4.99775C16.3768 4.85513 16.1974 4.75916 16.0019 4.72315L14.2227 4.39545C13.8042 4.31838 13.6866 3.77455 14.036 3.53154L15.2926 2.6572C15.4998 2.51309 15.6417 2.29304 15.6875 2.0449L15.9904 0.403115C16.0676 -0.0153721 16.6116 -0.132694 16.8545 0.216761L17.6419 1.34991Z" fill="#ffffff"/>
</svg>
